<?xml version="1.0" standalone="no"?><!DOCTYPE svg PUBLIC "-//W3C//DTD SVG 1.1//EN" "http://www.w3.org/Graphics/SVG/1.1/DTD/svg11.dtd"><svg t="1585968194325" class="icon" viewBox="0 0 1024 1024" version="1.1" xmlns="http://www.w3.org/2000/svg" p-id="4166" xmlns:xlink="http://www.w3.org/1999/xlink" width="64" height="64"><defs><style type="text/css"></style></defs><path d="M138.545152 765.825024l95.52896 0c16.662528 0 30.16704-13.50656 30.16704-30.164992L264.241152 309.9648c0-16.662528-13.50656-30.16704-30.16704-30.16704L138.545152 279.79776c-16.662528 0-30.16704 13.50656-30.16704 30.16704l0 425.693184C108.376064 752.318464 121.882624 765.825024 138.545152 765.825024z" p-id="4167"></path><path d="M445.435904 765.825024l95.52896 0c16.662528 0 30.16704-19.744768 30.16704-44.10368L571.131904 99.325952c0-24.36096-13.50656-44.107776-30.16704-44.107776l-95.52896 0c-16.66048 0-30.16704 19.746816-30.16704 44.107776l0 622.395392C415.268864 746.080256 428.773376 765.825024 445.435904 765.825024z" p-id="4168"></path><path d="M752.326656 765.825024l95.52896 0c16.662528 0 30.16704-18.345984 30.16704-40.986624l0-578.3552c0-22.636544-13.50656-40.984576-30.16704-40.984576l-95.52896 0c-16.662528 0-30.16704 18.348032-30.16704 40.984576l0 578.3552C722.157568 747.476992 735.664128 765.825024 752.326656 765.825024z" p-id="4169"></path><path d="M6.144 816.103424l968.704 0 0 50.2784-968.704 0 0-50.2784Z" p-id="4170"></path></svg>