<svg t="1591669559713" class="icon" viewBox="0 0 1024 1024" version="1.1" xmlns="http://www.w3.org/2000/svg" p-id="2407" width="128" height="128"><path d="M699.328 844.544 686.08 844.544l0-34.176c0-18.24-16.768-33.088-37.504-33.088l-517.12 0c-20.736 0-37.568 14.784-37.568 33.088l0 34.176L80.64 844.544c-24.832 0-44.992 19.584-44.992 43.968l0 77.44c0 24.128 20.096 43.904 44.992 43.904l618.688 0c24.896 0 44.992-19.776 44.992-43.904l0-77.44C744.32 864.128 724.16 844.544 699.328 844.544z" p-id="2408" ></path><path d="M803.52 274.944c5.952-2.176 11.328-5.76 15.36-11.072 11.456-14.72 8.384-35.904-6.784-46.976L554.368 27.264C539.2 16.192 517.632 19.072 506.176 33.984c-3.84 4.928-5.76 10.56-6.528 16.192L803.52 274.944z" p-id="2409" ></path><path d="M175.68 469.696C170.752 472 166.272 475.2 162.752 479.744 151.36 494.656 154.368 515.52 169.536 526.72l257.728 189.568c15.168 11.072 36.8 8.128 48.064-6.656 3.904-5.12 6.08-10.88 6.592-16.64L175.68 469.696z" p-id="2410" ></path><path d="M968.896 649.024l-293.568-216 93.696-121.728c4.416-5.568 7.04-11.968 8.256-18.304L498.688 86.784C492.224 89.664 486.336 94.144 481.728 100.032L388.032 221.76 377.408 214.016c-19.84-14.592-48-10.688-62.976 8.768L295.36 247.424C280.384 266.816 284.48 294.4 304.32 308.992l10.496 7.744L217.856 442.624C214.208 447.36 211.84 452.416 210.432 457.856l283.136 206.336c4.288-2.688 8.256-6.144 11.584-10.24L602.112 528l293.568 215.872c20.032 14.72 48.128 10.752 62.976-8.512l19.008-24.896C992.768 691.072 988.8 663.488 968.896 649.024z" p-id="2411"></path></svg>