<?xml version="1.0" standalone="no"?><!DOCTYPE svg PUBLIC "-//W3C//DTD SVG 1.1//EN" "http://www.w3.org/Graphics/SVG/1.1/DTD/svg11.dtd"><svg t="1585971308413" class="icon" viewBox="0 0 1024 1024" version="1.1" xmlns="http://www.w3.org/2000/svg" p-id="38172" xmlns:xlink="http://www.w3.org/1999/xlink" width="64" height="64"><defs><style type="text/css"></style></defs><path d="M480 480H176.96c-45.056 0-61.952-30.656-38.208-67.904L394.624 49.216C441.792-24.576 480-14.144 480 72.192V480z m0 64v303.04c0 45.056-30.656 61.952-67.904 38.208L49.216 629.376C-24.576 582.208-14.144 544 72.192 544H480z m64 0h303.04c45.056 0 61.952 30.656 38.208 67.904l-255.872 362.88c-47.168 73.792-85.376 63.36-85.376-22.976V544z m0-64V176.96c0-45.056 30.656-61.952 67.904-38.208l362.88 255.872c73.792 47.168 63.36 85.376-22.976 85.376H544z" p-id="38173"></path></svg>