<?xml version="1.0" standalone="no"?><!DOCTYPE svg PUBLIC "-//W3C//DTD SVG 1.1//EN" "http://www.w3.org/Graphics/SVG/1.1/DTD/svg11.dtd"><svg t="1585703727879" class="icon" viewBox="0 0 1024 1024" version="1.1" xmlns="http://www.w3.org/2000/svg" p-id="1428" xmlns:xlink="http://www.w3.org/1999/xlink" width="128" height="128"><defs><style type="text/css"></style></defs><path d="M959.715317 735.848231c0 19.61985-5.520963 37.818327-14.375994 53.829999L662.623029 473.359958l279.655459-244.668419c10.878191 17.269315 17.435805 37.545104 17.435805 59.459207L959.714294 735.848231zM512.000512 530.799158l389.127102-340.471368c-15.959114-8.744151-33.939341-14.100136-53.340998-14.100136l-671.572209 0c-19.429288 0-37.411561 5.355985-53.314391 14.100136L512.000512 530.799158zM620.4836 510.196934l-90.067939 78.861092c-5.27229 4.589528-11.830928 6.885827-18.416173 6.885827-6.588315 0-13.14593-2.296299-18.41822-6.886851l-90.094546-78.861092L117.188711 830.556243c17.161548 10.767228 37.273409 17.216103 59.025697 17.216103l671.572209 0c21.752288 0 41.863125-6.450922 59.024673-17.216103L620.4836 510.196934zM81.719465 228.692562c-10.876144 17.269315-17.433759 37.545104-17.433759 59.459207l0 447.696462c0 19.61985 5.492309 37.818327 14.373948 53.829999l282.69071-316.370461L81.719465 228.692562z" p-id="1429"></path></svg>