<?xml version="1.0" standalone="no"?><!DOCTYPE svg PUBLIC "-//W3C//DTD SVG 1.1//EN" "http://www.w3.org/Graphics/SVG/1.1/DTD/svg11.dtd"><svg t="1585707762746" class="icon" viewBox="0 0 1024 1024" version="1.1" xmlns="http://www.w3.org/2000/svg" p-id="9884" xmlns:xlink="http://www.w3.org/1999/xlink" width="128" height="128"><defs><style type="text/css"></style></defs><path d="M542.7 798.8l192.2 122.1c13.2 8.4 30.7 4.5 39.1-8.8 4-6.3 5.4-14 3.7-21.3L718.1 622 918 439.7c11.5-10.6 12.3-28.5 1.8-40-4.8-5.2-11.3-8.5-18.4-9.1l-261.8-23.4-101-251.2c-5.8-14.5-22.3-21.6-36.9-15.7-7.2 2.9-12.9 8.6-15.7 15.7L384.9 367.1l-261.8 23.4c-15.6 1.4-27.1 15.2-25.7 30.8 0.6 7 3.9 13.6 9.1 18.3l200 182.4-59.6 268.9c-3.4 15.3 6.3 30.4 21.6 33.8 7.3 1.6 15 0.3 21.3-3.7l192.1-122.1c18.5-11.9 42.2-11.9 60.8-0.1z" p-id="9885"></path></svg>