<?xml version="1.0" standalone="no"?><!DOCTYPE svg PUBLIC "-//W3C//DTD SVG 1.1//EN" "http://www.w3.org/Graphics/SVG/1.1/DTD/svg11.dtd"><svg t="1585970363249" class="icon" viewBox="0 0 1128 1024" version="1.1" xmlns="http://www.w3.org/2000/svg" p-id="28654" xmlns:xlink="http://www.w3.org/1999/xlink" width="70.5" height="64"><defs><style type="text/css"></style></defs><path d="M980.711066 0.015039H147.538124A145.31649 145.31649 0 0 0 0.153741 148.527364v494.414449A149.546271 149.546271 0 0 0 141.146455 798.973749h46.997571v187.990285c0 44.647693 62.600765 46.997571 92.068242 17.389101L470.129453 798.973749h516.973283a149.546271 149.546271 0 0 0 140.992713-156.031936V148.527364A145.363488 145.363488 0 0 0 980.711066 0.015039zM611.122166 610.983465H235.141597a46.997571 46.997571 0 0 1 0-93.995143h375.980569a46.997571 46.997571 0 0 1 0 93.995143z m278.6486-328.982999H238.478425a46.997571 46.997571 0 1 1 0-93.995142h651.292341a46.997571 46.997571 0 1 1 0 93.995142z m0 0" p-id="28655"></path></svg>