<?xml version="1.0" standalone="no"?><!DOCTYPE svg PUBLIC "-//W3C//DTD SVG 1.1//EN" "http://www.w3.org/Graphics/SVG/1.1/DTD/svg11.dtd"><svg t="1585970013786" class="icon" viewBox="0 0 1024 1024" version="1.1" xmlns="http://www.w3.org/2000/svg" p-id="15775" xmlns:xlink="http://www.w3.org/1999/xlink" width="64" height="64"><defs><style type="text/css"></style></defs><path d="M375.41487 258.403564h257.849244c79.512983 0 140.28362-165.841364 140.28362-165.841365C773.547734 43.15056 768.436186 5.665868 681.539854 1.690219s-109.614327 56.794988-173.224713 56.794988S408.355963 13.617166 328.27503 1.690219 234.5633 43.15056 234.5633 92.562199c0 0 60.770637 165.841364 140.85157 165.841365z m271.480042 51.115489H375.41487c-301.581385 0-375.41487 567.949878-375.41487 567.949878A149.938768 149.938768 0 0 0 140.85157 1024h738.334842A149.938768 149.938768 0 0 0 1022.309781 875.197132s-73.833484-567.949878-375.414869-567.949879z m31.237243 434.481657a31.805193 31.805193 0 1 1 0 63.042436H544.663933v82.352733a32.941093 32.941093 0 0 1-65.882185 0v-82.352733H344.745576a31.805193 31.805193 0 1 1 0-63.042436h134.036172v-39.756492H344.745576a31.805193 31.805193 0 1 1 0-63.042436h90.871981L340.769927 483.311716a30.669293 30.669293 0 0 1 11.926948-42.596241 34.076993 34.076993 0 0 1 44.86804 11.358997l113.589976 189.12731h5.679498l113.589976-189.12731a34.076993 34.076993 0 0 1 44.86804-11.358997 30.101344 30.101344 0 0 1 11.926948 42.596241l-92.57583 157.890066h85.192481a31.805193 31.805193 0 1 1 0 63.042436H544.663933v39.756492z" p-id="15776"></path></svg>