<?xml version="1.0" standalone="no"?><!DOCTYPE svg PUBLIC "-//W3C//DTD SVG 1.1//EN" "http://www.w3.org/Graphics/SVG/1.1/DTD/svg11.dtd"><svg t="1585714261653" class="icon" viewBox="0 0 1024 1024" version="1.1" xmlns="http://www.w3.org/2000/svg" p-id="14511" xmlns:xlink="http://www.w3.org/1999/xlink" width="128" height="128"><defs><style type="text/css"></style></defs><path d="M806.1 222.9c-59 0-145.5-19.8-262-94.7C468.6 79.7 395 63.8 331 63.8c-66.6 0-123 17.2-160.6 33V64.2h-50v896h50V662.9c44.9-24.3 116.1-53.8 196.7-53.8 56.4 0 117.3 14.5 177.1 55.2 111.9 76.4 197.6 96.8 257.2 96.8 68.3 0 102.4-26.8 102.4-26.8V198c-0.1 0-31.5 24.9-97.7 24.9z m47.6 480.5c-12 4-29.4 7.7-52.4 7.7-28.5 0-59.7-5.7-92.8-17.1-42.7-14.6-88.5-38.5-136.2-71-62.2-42.4-131.2-63.9-205.3-63.9-77.6 0-146.7 23.8-196.6 47.7V151.7c8.1-4 18.3-8.6 30.2-13.1 29.5-11.3 76.1-24.8 130.5-24.8 65.1 0 127.7 19 186.1 56.5 105.9 68.1 203.2 102.6 289 102.6 16.6 0 32.5-1.3 47.6-3.9v434.4z" fill="" p-id="14512"></path></svg>