<?xml version="1.0" standalone="no"?><!DOCTYPE svg PUBLIC "-//W3C//DTD SVG 1.1//EN" "http://www.w3.org/Graphics/SVG/1.1/DTD/svg11.dtd"><svg t="1585971160132" class="icon" viewBox="0 0 1389 1024" version="1.1" xmlns="http://www.w3.org/2000/svg" p-id="36786" xmlns:xlink="http://www.w3.org/1999/xlink" width="86.8125" height="64"><defs><style type="text/css"></style></defs><path d="M334.010363 899.782828v-25.635107c0-77.093814 128.364028-148.721319 241.554335-190.001381a89.722874 89.722874 0 0 0 25.729354-102.823168A356.064095 356.064095 0 0 1 503.560207 339.674591 194.430976 194.430976 0 0 1 704.022973 129.127426 197.069884 197.069884 0 0 1 904.485739 339.674591a360.210951 360.210951 0 0 1-102.823168 241.648581c-25.635107 66.632429 10.178645 102.823168 15.267968 102.823168 113.09606 35.813752 246.737904 113.09606 251.827227 190.001381v25.635107c0 103.105908-190.001381 123.368952-364.734793 123.368952-179.728488 0-370.012609-25.729354-370.01261-123.368952z m539.845193-282.74015a450.405058 450.405058 0 0 0 107.818244-277.55658 290.46838 290.46838 0 0 0-102.728921-231.187196 166.628195 166.628195 0 0 1 164.17778-108.100984 182.83863 182.83863 0 0 1 185.289045 200.839753 333.727623 333.727623 0 0 1-87.5552 226.19212c-20.640031 61.448859 10.461386 72.004491 15.550708 72.004491 113.09606 35.813752 236.276518 102.446181 231.187196 179.822735v25.635107c0 76.999567-123.463199 107.818244-256.91655 113.09606-36.096492-102.917414-169.64409-169.832583-256.822302-200.557013z m-873.761309 87.5552V678.962771c0-77.376554 123.463199-144.008983 231.187195-179.822735 5.089323 0 35.907999-10.461386 15.550709-72.004492a332.031182 332.031182 0 0 1-87.5552-226.19212A188.493433 188.493433 0 0 1 344.565996 0.103671a166.910935 166.910935 0 0 1 164.17778 108.100984 289.33742 289.33742 0 0 0-102.728921 231.187196 450.405058 450.405058 0 0 0 107.818244 277.55658c-87.178213 30.72443-221.00855 97.639598-256.91655 200.36852C123.463199 812.510368 0 781.785938 0 704.786371z" p-id="36787"></path></svg>