<?xml version="1.0" standalone="no"?><!DOCTYPE svg PUBLIC "-//W3C//DTD SVG 1.1//EN" "http://www.w3.org/Graphics/SVG/1.1/DTD/svg11.dtd"><svg t="1585714555316" class="icon" viewBox="0 0 1024 1024" version="1.1" xmlns="http://www.w3.org/2000/svg" p-id="865" xmlns:xlink="http://www.w3.org/1999/xlink" width="128" height="128"><defs><style type="text/css"></style></defs><path d="M168.806 511.66A263.12 263.12 0 0 0 360.72 764.61a33.907 33.907 0 0 0 42.045-33.908 33.907 33.907 0 0 0-24.074-33.907 194.628 194.628 0 0 1 0-374.676 33.907 33.907 0 0 0 24.074-33.907 33.907 33.907 0 0 0-42.045-33.907A263.12 263.12 0 0 0 168.806 511.66zM494.994 1024a46.114 46.114 0 0 0 27.804-12.546l10.85-9.494 109.86-89.515L799.82 783.936 940.535 783.93599999a67.815 67.815 0 0 0 67.815-67.81399999l0-400.784a67.815 67.815 0 0 0-67.815-67.815l-131.899 0-160.381-131.90000001-111.216-91.20999999-14.58-11.86700001A46.114 46.114 0 0 0 494.655 0c-11.868 0-20.006 8.816-23.057 24.413a65.78 65.78 0 0 0 0 12.546L471.598 986.702a67.815 67.815 0 0 0 0 14.92C475.328 1016.201 483.804 1024 494.994 1024z m208.19-775.12l81.039 67.814L940.535 316.694 940.53500001 716.122l-164.78900001 0-78.665 64.424-158.686 130.543L538.395 113.25z" p-id="866"></path><path d="M290.194 952.456a33.907 33.907 0 0 0 48.826-30.178 33.907 33.907 0 0 0-19.327-30.516 421.128 421.128 0 0 1 0-756.133 33.907 33.907 0 0 0 19.327-30.516 33.907 33.907 0 0 0-48.826-30.856 488.943 488.943 0 0 0 0 878.538z" p-id="867"></path></svg>