<svg t="1591714761085" class="icon" viewBox="0 0 1024 1024" version="1.1" xmlns="http://www.w3.org/2000/svg" p-id="9647" width="128" height="128"><path d="M511.601422 63.74379c-247.565399 0-448.25621 200.694905-448.25621 448.25621 0 247.570515 200.690812 448.257234 448.25621 448.257234 247.566422 0 448.25314-200.686718 448.25314-448.257234C959.854563 264.437671 759.167844 63.74379 511.601422 63.74379zM639.593492 318.832536c8.187473-8.18338 19.071358-12.694113 30.646997-12.694113 23.899316 0 43.341111 19.443841 43.341111 43.344181 0 23.899316-19.440771 43.344181-43.341111 43.344181-23.89727 0-43.338041-19.444864-43.338041-43.344181C626.900402 337.910033 631.407042 327.022055 639.593492 318.832536zM361.954147 306.137399c23.899316 0 43.344181 19.443841 43.344181 43.344181 0 23.899316-19.444864 43.344181-43.344181 43.344181s-43.341111-19.444864-43.341111-43.344181C318.61406 325.582263 338.054831 306.137399 361.954147 306.137399zM740.697167 621.84885c-56.013735 67.348897-138.322345 105.97052-225.819119 105.97052-91.946109 0-176.823218-41.826618-232.873792-114.761744-3.466961-4.517897-4.977361-10.111289-4.245697-15.745612 0.729617-5.64865 3.621481-10.66899 8.126075-14.127765 3.755534-2.908236 8.252964-4.440126 13.008268-4.440126 6.598278 0 12.914124 3.113921 16.885576 8.324596 47.923476 62.342884 120.491235 98.106412 199.095477 98.106412 74.812893 0 145.18259-33.031301 193.07025-90.62195 4.059456-4.859681 10.035564-7.647167 16.397459-7.647167 4.966105 0 9.80225 1.74883 13.615089 4.919033 4.371564 3.629667 7.059789 8.756431 7.583722 14.426571C746.060315 611.926874 744.341161 617.461937 740.697167 621.84885z" p-id="9648"></path></svg>