<svg t="1591670789244" class="icon" viewBox="0 0 1024 1024" version="1.1" xmlns="http://www.w3.org/2000/svg" p-id="3427" width="128" height="128"><path d="M958.057333 64.612385l-164.85323 0-185.357328 249.481452c-49.432885 67.61016-79.667985 112.55149-90.7073 134.823989l-3.15566 0c-32.609691-54.160279-124.625704-182.258429-276.066827-384.305441l-174.316014 0 324.180206 406.776805L121.968801 471.38919l0 89.881061 311.559762 0 0 123.878011L121.968801 685.148261l0 91.034279 311.559762 0 0 180.341928 154.594585 0L588.123149 776.18274l300.518249 0 0-91.034279L588.125547 685.148461l0-123.878011 300.518249 0 0-89.881061L630.721467 471.38939 958.057333 64.612385z" p-id="3428"></path></svg>