<?xml version="1.0" standalone="no"?><!DOCTYPE svg PUBLIC "-//W3C//DTD SVG 1.1//EN" "http://www.w3.org/Graphics/SVG/1.1/DTD/svg11.dtd"><svg t="1585713715390" class="icon" viewBox="0 0 1024 1024" version="1.1" xmlns="http://www.w3.org/2000/svg" p-id="14046" xmlns:xlink="http://www.w3.org/1999/xlink" width="128" height="128"><defs><style type="text/css"></style></defs><path d="M656.695652 857.043478a133.565217 133.565217 0 1 1-267.130435 0h-244.869565l66.782609-133.565217v-333.913044h2.470956c12.889043-116.224 91.848348-212.257391 198.500174-249.87826-0.26713-2.025739-0.623304-4.029217-0.623304-6.12174a100.173913 100.173913 0 0 1 200.347826 0c0 2.092522-0.356174 4.096-0.623304 6.12174 106.651826 37.62087 185.61113 133.654261 198.500174 249.87826h2.470956v333.913044l66.782609 133.565217h-222.608696z m-133.565217 89.043479a89.043478 89.043478 0 0 0 89.043478-89.043479h-178.086956a89.043478 89.043478 0 0 0 89.043478 89.043479z m-11.130435-868.173914a55.474087 55.474087 0 0 0-55.05113 49.619479A303.059478 303.059478 0 0 1 512 122.434783c18.810435 0 37.197913 1.80313 55.05113 5.097739A55.474087 55.474087 0 0 0 512 77.913043z m256 645.565218v-311.652174h-0.556522c-5.87687-136.192-117.826783-244.869565-255.443478-244.869565-137.616696 0-249.566609 108.677565-255.443478 244.869565H256v311.652174l-44.521739 89.043478h601.043478l-44.521739-89.043478z"  p-id="14047"></path></svg>