<?xml version="1.0" standalone="no"?><!DOCTYPE svg PUBLIC "-//W3C//DTD SVG 1.1//EN" "http://www.w3.org/Graphics/SVG/1.1/DTD/svg11.dtd"><svg t="1585919607983" class="icon" viewBox="0 0 1024 1024" version="1.1" xmlns="http://www.w3.org/2000/svg" p-id="4602" xmlns:xlink="http://www.w3.org/1999/xlink" width="128" height="128"><defs><style type="text/css"></style></defs><path d="M512 78.933333c-11.52 0-23.466667 2.986667-33.28 8.533334l-317.44 183.466666c-20.48 11.946667-33.28 34.133333-33.28 58.026667v366.08c0 23.893333 12.8 46.08 33.28 58.026667l83.2 47.786666c40.533333 19.626667 54.186667 20.053333 72.96 20.053334 59.733333 0 94.293333-36.266667 94.293333-99.413334V360.106667c0-5.12-4.266667-9.386667-9.386666-9.386667H362.666667c-5.546667 0-9.813333 4.266667-9.813334 9.386667v361.386666c0 28.16-29.013333 55.893333-75.52 32.426667L189.866667 704a11.093333 11.093333 0 0 1-4.693334-8.96V328.96c0-3.84 1.706667-7.253333 4.693334-8.96l317.44-183.04c2.56-1.706667 6.826667-1.706667 9.386666 0l317.44 183.04c2.986667 1.706667 4.693333 5.12 4.693334 8.96v366.08c0 3.413333-1.706667 6.826667-4.693334 8.96l-317.44 183.04c-2.56 1.706667-6.826667 1.706667-9.813333 0L426.666667 838.4c-3.413333-1.28-6.826667-1.706667-8.96-0.426667-22.613333 12.8-26.88 15.36-47.786667 21.76-5.12 1.706667-13.226667 4.693333 2.986667 13.653334l105.813333 62.72c10.24 5.973333 21.333333 8.96 33.28 8.96s23.04-2.986667 33.28-8.96l317.44-183.04c20.48-11.946667 33.28-34.133333 33.28-58.026667V328.96c0-23.893333-12.8-46.08-33.28-58.026667l-317.44-183.466666c-9.813333-5.546667-21.333333-8.533333-33.28-8.533334M597.333333 341.333333c-90.453333 0-144.64 37.973333-144.64 101.973334 0 68.693333 53.76 88.746667 140.8 97.28 103.68 10.24 111.786667 25.6 111.786667 46.08 0 35.413333-28.586667 50.346667-95.146667 50.346666-84.48 0-102.4-20.906667-108.8-62.72a9.642667 9.642667 0 0 0-9.386666-7.68h-40.96c-5.12 0-8.96 3.84-8.96 9.386667 0 52.906667 29.013333 116.906667 168.106666 116.906667 100.266667 0 157.866667-39.68 157.866667-108.8 0-68.693333-46.08-86.613333-143.786667-99.84-98.56-12.8-108.373333-19.626667-108.373333-42.666667 0-19.2 8.533333-44.8 81.493333-44.8 64 0 89.173333 14.08 98.986667 58.026667 0.853333 4.266667 4.693333 7.253333 8.96 7.253333h41.386667c2.133333 0 4.693333-0.853333 6.4-2.986667 1.706667-1.706667 2.986667-4.266667 2.133333-6.826666C749.226667 376.32 698.88 341.333333 597.333333 341.333333z" fill="" p-id="4603"></path></svg>