<?xml version="1.0" standalone="no"?><!DOCTYPE svg PUBLIC "-//W3C//DTD SVG 1.1//EN" "http://www.w3.org/Graphics/SVG/1.1/DTD/svg11.dtd"><svg t="1585967668993" class="icon" viewBox="0 0 1024 1024" version="1.1" xmlns="http://www.w3.org/2000/svg" p-id="3407" xmlns:xlink="http://www.w3.org/1999/xlink" width="64" height="64"><defs><style type="text/css"></style></defs><path d="M192.124455 135.876923H84.210609A13.233231 13.233231 0 0 1 70.662302 122.407385V14.493538C70.662302 6.695385 76.491225 0.866462 84.13184 0.866462h107.992615c7.640615 0 13.548308 5.828923 13.548308 13.469538v107.913846a13.233231 13.233231 0 0 1-13.548308 13.548308z m809.826462 0H319.573071a13.233231 13.233231 0 0 1-13.548308-13.469538V14.493538c0-7.719385 5.907692-13.548308 13.548308-13.548307h682.456615c7.719385 0 13.548308 5.828923 13.548308 13.469538v107.913846a13.233231 13.233231 0 0 1-13.548308 13.548308zM192.203225 541.696H84.053071A13.233231 13.233231 0 0 1 70.662302 528.226462v-107.913847c0-7.719385 5.828923-13.548308 13.469538-13.548307h107.992615c7.640615 0 13.548308 5.828923 13.548308 13.469538v107.992616a13.548308 13.548308 0 0 1-13.548308 13.469538z m809.747692 0H319.573071a13.233231 13.233231 0 0 1-13.548308-13.469538v-107.913847c0-7.719385 5.907692-13.548308 13.548308-13.548307h682.456615c7.719385 0 13.548308 5.828923 13.548308 13.469538v107.992616a13.548308 13.548308 0 0 1-13.548308 13.469538zM192.124455 947.593846H84.210609A13.233231 13.233231 0 0 1 70.662302 933.966769v-107.913846c0-7.719385 5.828923-13.548308 13.469538-13.548308h107.992615c7.640615 0 13.548308 5.828923 13.548308 13.469539v107.992615a13.548308 13.548308 0 0 1-13.548308 13.469539z m809.826462 0H319.573071a13.233231 13.233231 0 0 1-13.548308-13.548308v-107.913846c0-7.719385 5.907692-13.548308 13.548308-13.548307h682.456615c7.719385 0 13.548308 5.828923 13.548308 13.469538v107.992615a13.548308 13.548308 0 0 1-13.548308 13.469539z"  p-id="3408"></path></svg>