<svg t="1591696394206" class="icon" viewBox="0 0 1024 1024" version="1.1" xmlns="http://www.w3.org/2000/svg" p-id="10345" width="128" height="128"><path d="M855.62878 649.542586c-80.906681 17.496489-247.244081 214.127845-301.189713 310.267463-76.420507-91.77317-166.326143-161.677263-229.261521-183.544293l148.346653-87.383186 71.925123 135.463228c0 0 116.878964-275.29188 301.187667-367.06505C842.151837 522.819416 824.169277 579.636446 855.62878 649.542586zM738.728326 224.027309c0-15.416108-12.504802-27.90249-27.921933-27.90249L599.139128 196.124819l0-55.847959 137.843438 0c30.834262 0 57.583486 24.991184 57.583486 55.847959l0 265.954211c-31.728632 12.738116-55.837726 39.34203-55.837726 39.34203L738.728326 224.027309zM654.968667 224.027309c15.427364 0 27.92398 12.507872 27.92398 27.925003 0 15.418154 0 55.846936 0 55.846936L290.282804 307.799248c0 0 0-40.428781 0-55.846936 0-15.416108 12.494569-27.925003 27.912723-27.925003l83.761706 0c0 0 0.329505-35.631522 0.329505-80.992639 0-47.108924 36.313044-86.509283 83.420945-86.509283 47.108924 0 86.450954 41.399899 86.450954 86.780459 0 48.856731-0.942465 80.721463-0.942465 80.721463L654.968667 224.027309zM485.707682 140.27686c-15.416108 0-27.913746 12.504802-27.913746 27.92398 0 15.417131 12.496615 27.92398 27.913746 27.92398 15.418154 0 27.92398-12.506848 27.92398-27.92398C513.631662 152.781662 501.125837 140.27686 485.707682 140.27686zM234.443032 224.027309l0 643.874493c0 15.419178 12.496615 27.92398 27.91477 27.92398l165.765371 0c30.273491 16.117073 49.788963 37.418214 60.712757 55.848982L234.443032 951.674765c-30.845519 0-55.835679-25.01165-55.835679-55.848982L178.607352 196.123796c0-30.856775 24.991184-55.847959 55.835679-55.847959l141.339052 0 0 55.847959-113.423259 0C246.939647 196.123796 234.443032 208.611202 234.443032 224.027309zM710.806393 895.825782c15.417131 0 27.921933-12.504802 27.921933-27.92398l0-92.50688c18.611893-18.897396 37.3517-36.06131 55.837726-51.265594L794.566052 895.825782c0 30.837332-26.750247 55.848982-57.583486 55.848982L594.829985 951.674765c12.192693-18.294668 25.429159-37.012985 39.525202-55.848982L710.806393 895.825782z" p-id="10346"></path></svg>