<?xml version="1.0" standalone="no"?><!DOCTYPE svg PUBLIC "-//W3C//DTD SVG 1.1//EN" "http://www.w3.org/Graphics/SVG/1.1/DTD/svg11.dtd"><svg t="1585919589047" class="icon" viewBox="0 0 1024 1024" version="1.1" xmlns="http://www.w3.org/2000/svg" p-id="3736" xmlns:xlink="http://www.w3.org/1999/xlink" width="128" height="128"><defs><style type="text/css"></style></defs><path d="M836.8 356.8c-11.2-3.2-22.4-8-33.6-11.2 3.2-8 3.2-14.4 4.8-22.4 25.6-120 8-216-48-246.4-52.8-30.4-137.6 0-224 75.2-8 8-16 14.4-25.6 22.4l-16-16C401.6 76.8 312 43.2 256 75.2c-52.8 30.4-67.2 120-44.8 232 3.2 11.2 4.8 22.4 8 33.6-14.4 3.2-25.6 8-36.8 11.2C78.4 387.2 0 446.4 0 508.8s81.6 126.4 193.6 161.6c8 3.2 16 4.8 27.2 8-3.2 11.2-4.8 25.6-8 36.8-22.4 112-4.8 198.4 48 228.8 52.8 30.4 145.6 0 232-78.4 8-4.8 14.4-14.4 22.4-19.2 8 8 16 16 27.2 25.6C628.8 944 713.6 976 763.2 944c52.8-30.4 72-126.4 48-240-3.2-8-3.2-16-4.8-27.2 4.8-3.2 14.4-3.2 19.2-4.8C940.8 630.4 1024 569.6 1024 508.8c0-56-78.4-115.2-187.2-152z m-272-171.2c75.2-64 142.4-89.6 176-72 33.6 19.2 48 97.6 25.6 201.6-3.2 4.8-3.2 14.4-4.8 19.2-44.8-11.2-89.6-16-134.4-22.4-25.6-36.8-52.8-72-83.2-105.6 6.4-6.4 12.8-11.2 20.8-20.8zM336 617.6c11.2 16 19.2 33.6 30.4 52.8-30.4-3.2-60.8-8-92.8-14.4 8-27.2 19.2-59.2 33.6-89.6 9.6 14.4 17.6 33.6 28.8 51.2z m-62.4-241.6c27.2-4.8 59.2-11.2 92.8-16-11.2 16-22.4 33.6-30.4 49.6-11.2 16-19.2 33.6-27.2 52.8-14.4-30.4-25.6-57.6-35.2-86.4z m54.4 137.6c14.4-27.2 27.2-56 41.6-81.6 14.4-27.2 30.4-52.8 48-78.4 30.4-1.6 60.8-1.6 91.2-1.6s60.8 0 92.8 3.2c16 25.6 33.6 49.6 48 78.4 16 25.6 30.4 52.8 44.8 81.6-14.4 27.2-27.2 56-41.6 81.6-14.4 27.2-30.4 52.8-48 78.4-30.4 3.2-60.8 3.2-92.8 3.2s-60.8 0-92.8-3.2c-16-25.6-33.6-49.6-49.6-78.4-14.4-27.2-28.8-54.4-41.6-83.2z m363.2 104c11.2-16 19.2-36.8 27.2-52.8 14.4 27.2 25.6 59.2 33.6 89.6-30.4 8-60.8 11.2-94.4 16 11.2-19.2 22.4-36.8 33.6-52.8z m27.2-153.6c-8-16-19.2-36.8-27.2-52.8-11.2-16-19.2-33.6-30.4-49.6 33.6 3.2 64 8 92.8 16-12.8 30.4-24 57.6-35.2 86.4zM512 240c22.4 22.4 41.6 48 59.2 72-38.4-3.2-78.4-3.2-120 0 22.4-27.2 41.6-52.8 60.8-72zM280 116.8c33.6-19.2 108.8 8 187.2 78.4 4.8 4.8 11.2 8 14.4 14.4-30.4 33.6-59.2 70.4-86.4 105.6-44.8 3.2-89.6 11.2-134.4 19.2-3.2-11.2-4.8-19.2-8-30.4-14.4-97.6-3.2-171.2 27.2-187.2z m-48 524.8c-8-3.2-16-4.8-25.6-8-41.6-14.4-92.8-33.6-126.4-60.8-19.2-14.4-33.6-36.8-36.8-59.2 0-36.8 64-83.2 153.6-115.2 11.2-3.2 22.4-8 33.6-11.2 14.4 44.8 30.4 86.4 49.6 126.4-17.6 41.6-33.6 84.8-48 128zM464 838.4c-33.6 30.4-70.4 52.8-112 70.4-22.4 11.2-48 11.2-70.4 3.2-30.4-19.2-44.8-89.6-27.2-184 3.2-11.2 4.8-22.4 8-33.6 44.8 8 89.6 16 137.6 19.2 25.6 36.8 56 72 86.4 105.6-8 8-16 12.8-22.4 19.2z m51.2-48c-19.2-22.4-41.6-48-60.8-72h59.2c19.2 0 41.6 0 60.8-3.2-20.8 27.2-40 52.8-59.2 75.2z m259.2 59.2c-3.2 25.6-14.4 48-33.6 60.8-30.4 19.2-100.8-4.8-172.8-67.2-8-8-16-14.4-25.6-22.4 30.4-33.6 59.2-70.4 83.2-105.6 44.8-3.2 92.8-11.2 137.6-22.4 3.2 8 3.2 16 4.8 25.6 12.8 41.6 12.8 86.4 6.4 131.2z m36.8-216c-4.8 3.2-11.2 3.2-16 4.8-14.4-41.6-30.4-83.2-49.6-126.4 19.2-41.6 36.8-83.2 49.6-126.4 11.2 3.2 19.2 4.8 30.4 8 92.8 30.4 160 78.4 160 115.2-3.2 44.8-73.6 94.4-174.4 124.8zM512 606.4c49.6 0 92.8-41.6 92.8-92.8 0-49.6-41.6-92.8-92.8-92.8s-92.8 41.6-92.8 92.8c0 51.2 43.2 92.8 92.8 92.8z"  p-id="3737"></path></svg>