<?xml version="1.0" standalone="no"?><!DOCTYPE svg PUBLIC "-//W3C//DTD SVG 1.1//EN" "http://www.w3.org/Graphics/SVG/1.1/DTD/svg11.dtd"><svg t="1586270995099" class="icon" viewBox="0 0 1024 1024" version="1.1" xmlns="http://www.w3.org/2000/svg" p-id="3639" xmlns:xlink="http://www.w3.org/1999/xlink" width="128" height="128"><defs><style type="text/css"></style></defs><path d="M879.787 101.787c11.716-11.716 30.71-11.716 42.426 0 11.716 11.716 11.716 30.71 0 42.426l-262 262c-11.716 11.716-30.71 11.716-42.426 0-11.716-11.716-11.716-30.71 0-42.426l262-262z m-517 517c11.716-11.716 30.71-11.716 42.426 0 11.716 11.716 11.716 30.71 0 42.426l-261 261c-11.716 11.716-30.71 11.716-42.426 0-11.716-11.716-11.716-30.71 0-42.426l261-261zM144.213 101.787c-11.716-11.716-30.71-11.716-42.426 0-11.716 11.716-11.716 30.71 0 42.426l261 261c11.716 11.716 30.71 11.716 42.426 0 11.716-11.716 11.716-30.71 0-42.426l-261-261z m515 515c-11.716-11.716-30.71-11.716-42.426 0-11.716 11.716-11.716 30.71 0 42.426l263 263c11.716 11.716 30.71 11.716 42.426 0 11.716-11.716 11.716-30.71 0-42.426l-263-263z"  p-id="3640"></path><path d="M851.573 366.064c16.569 0 30 13.431 30 30 0 16.568-13.431 30-30 30H658c-33.137 0-60-26.863-60-60V172c0-16.569 13.431-30 30-30 16.569 0 30 13.431 30 30v194.064h193.573zM658 851.866c0 16.569-13.431 30-30 30-16.569 0-30-13.431-30-30V657c0-33.137 26.863-60 60-60h194.573c16.569 0 30 13.431 30 30 0 16.569-13.431 30-30 30H658v194.866zM173 658c-16.569 0-30-13.431-30-30 0-16.569 13.431-30 30-30h194.504c33.137 0 60 26.863 60 60v193.866c0 16.569-13.432 30-30 30-16.569 0-30-13.431-30-30V658H173z m194.504-486c0-16.569 13.431-30 30-30 16.568 0 30 13.431 30 30v194.064c0 33.137-26.863 60-60 60H173c-16.569 0-30-13.432-30-30 0-16.569 13.431-30 30-30h194.504V172z" p-id="3641"></path></svg>