<?xml version="1.0" standalone="no"?><!DOCTYPE svg PUBLIC "-//W3C//DTD SVG 1.1//EN" "http://www.w3.org/Graphics/SVG/1.1/DTD/svg11.dtd"><svg t="1585970239231" class="icon" viewBox="0 0 1024 1024" version="1.1" xmlns="http://www.w3.org/2000/svg" p-id="20420" xmlns:xlink="http://www.w3.org/1999/xlink" width="64" height="64"><defs><style type="text/css"></style></defs><path d="M1020.439 264.843H3.561V116.542c0-27.3 21.971-49.434 49.078-49.434h918.713c13.01 0 25.505 5.208 34.708 14.475 9.203 9.273 14.379 21.847 14.379 34.959v148.301z m0 98.861v543.754c0 27.304-21.981 49.434-49.087 49.434H52.639a48.911 48.911 0 0 1-34.708-14.475c-9.212-9.273-14.37-21.841-14.37-34.959V363.704h1016.878zM445.365 610.862V487.285L224.458 709.73h550.525v-98.867H445.365z m0 0" p-id="20421"></path></svg>