<?xml version="1.0" standalone="no"?><!DOCTYPE svg PUBLIC "-//W3C//DTD SVG 1.1//EN" "http://www.w3.org/Graphics/SVG/1.1/DTD/svg11.dtd"><svg t="1585707534504" class="icon" viewBox="0 0 1024 1024" version="1.1" xmlns="http://www.w3.org/2000/svg" p-id="7641" xmlns:xlink="http://www.w3.org/1999/xlink" width="128" height="128"><defs><style type="text/css"></style></defs><path d="M512 62C264.5 62 62 264.5 62 512s202.5 450 450 450 450-202.5 450-450S759.5 62 512 62z m0 82.5c84.375 0 161.25 28.125 223.125 76.875l-513.75 513.75C172.625 673.25 144.5 596.375 144.5 512c0-202.5 165-367.5 367.5-367.5z m0 735c-90 0-170.625-31.875-234.375-84.375l517.5-517.5c52.5 63.75 84.375 146.25 84.375 234.375 0 202.5-165 367.5-367.5 367.5z" p-id="7642"></path></svg>