<svg t="1591696853585" class="icon" viewBox="0 0 1399 1024" version="1.1" xmlns="http://www.w3.org/2000/svg" p-id="1368" width="128" height="128"><path d="M885.43050227 532.27045762c-106.60161103 73.28053249-177.21710347 195.8723851-177.21710345 335.77892399 0 74.62112785 19.99587828 143.91217559 54.62524954 203.86750655H143.24100989c-25.32595838 0-45.30568471-21.32032169-45.30568472-49.29516946v-61.29592631c0-3.98948474 1.32444469-9.31956484 2.66504006-14.64964624 13.32520154-41.30004802 41.30004802-77.28616789 83.95684464-109.26665107 33.30492787-23.98536302 74.60497589-45.30568471 123.9162973-62.62037099 75.94557254-26.65040308 155.89678048-37.31056457 182.54718356-39.97560461 1.32444469 0-1.32444469-69.29104774 0-70.63164312 0 0 0-25.30980643-14.64964495-41.31619997 0 0 0-1.32444469-1.32444469-1.3244447-43.98124002-37.31056457-81.27565263-89.27077408-107.92605571-151.90729572-1.32444469-1.32444469-2.66504004-2.66504004-3.98948475-2.66504136-38.65115993-5.3300801-73.29668316-46.64628137-85.28128804-101.27153092-13.32520154-59.97148291 1.32444469-117.26177251 37.31056328-139.90653889 1.32444469-1.34059664 2.66504004-2.66504004 2.66504004-5.3300801-1.32444469-114.59673246 25.32595838-206.53254659 82.6162493-271.8341096 70.61549114-81.27565263 169.22198202-98.60649087 241.1780698-98.60649087 70.61549114 0 170.56257867 17.33083824 243.84310986 101.27153093 55.96584621 65.28541105 83.95684465 155.89678048 82.6162493 271.81795764 0 1.32444469 1.34059664 4.0056367 2.66504005 5.33008139 34.64552323 22.64476638 50.63576481 78.61061259 37.31056456 139.9065389-12.00075684 54.62524957-47.97072476 95.94145083-85.28128932 101.27153091-1.32444469 0-4.0056367 1.32444469-4.00563671 2.66504005-10.67631344 21.33647363-21.3526256 41.33235193-33.33723048 59.98763357" p-id="1369"></path><path d="M1115.94841059 1173.18841907c-169.22198202 0-305.13903747-137.24149884-305.13903617-305.13903746 0-169.22198202 137.24149884-305.13903747 305.13903617-305.13903617 167.89753861 0 305.13903747 137.24149884 305.13903746 305.13903617 1.32444469 169.22198202-135.91705414 305.13903747-305.13903746 305.13903746m127.921934-347.77968082h-83.94069268v-83.95684595c0-23.98536302-18.65528164-42.64064466-42.64064467-42.64064466-23.98536302 0-42.64064466 18.65528164-42.64064467 42.64064466v83.95684595h-85.28128933c-23.98536302 0-42.64064466 18.65528164-42.64064467 42.64064336 0 23.98536302 18.65528164 42.64064466 42.64064467 42.64064467h85.28128933V995.97131561c0 23.98536302 18.65528164 42.64064466 42.64064467 42.64064468 23.98536302 0 42.64064466-18.65528164 42.64064467-42.64064468v-85.28128933h83.94069268c23.98536302 0 42.64064466-18.65528164 42.64064468-42.64064467 0-23.98536302-18.65528164-42.64064466-42.64064468-42.64064336z" p-id="1370"></path></svg>