<svg t="1591696292213" class="icon" viewBox="0 0 1024 1024" version="1.1" xmlns="http://www.w3.org/2000/svg" p-id="6816" width="128" height="128"><path d="M928 12.8h-832C51.2 12.8 12.8 51.2 12.8 96v832c0 44.8 38.4 83.2 83.2 83.2h832c44.8 0 83.2-38.4 83.2-83.2v-832c0-44.8-38.4-83.2-83.2-83.2z m-147.2 518.4c-19.2 128-134.4 230.4-268.8 230.4s-249.6-102.4-268.8-230.4c-25.6-6.4-44.8-32-44.8-57.6 0-32 25.6-64 64-64s64 25.6 64 64c0 25.6-12.8 51.2-38.4 57.6 19.2 108.8 115.2 192 224 192s211.2-83.2 224-192c-19.2-12.8-32-32-32-57.6 0-32 25.6-64 64-64 32 0 64 25.6 64 64-6.4 25.6-25.6 51.2-51.2 57.6z m172.8-371.2c0 25.6-19.2 44.8-44.8 44.8H115.2c-25.6 0-44.8-19.2-44.8-44.8v-44.8c0-25.6 19.2-44.8 44.8-44.8h793.6c25.6 0 44.8 19.2 44.8 44.8v44.8z"  p-id="6817"></path></svg>