<?xml version="1.0" standalone="no"?><!DOCTYPE svg PUBLIC "-//W3C//DTD SVG 1.1//EN" "http://www.w3.org/Graphics/SVG/1.1/DTD/svg11.dtd"><svg t="1585968434943" class="icon" viewBox="0 0 1024 1024" version="1.1" xmlns="http://www.w3.org/2000/svg" p-id="11052" xmlns:xlink="http://www.w3.org/1999/xlink" width="64" height="64"><defs><style type="text/css"></style></defs><path d="M721.329 104.684c13.44-12.544 35.335-12.544 48.832 0L949.92 300.18c13.44 12.544 13.44 32.816 0 45.304l-122.304 3.304v345.968c0 16.968-14.952 30.856-33.264 30.856h-97.159c-18.313 0-33.264-13.888-33.264-30.856V348.787L541.4 345.483c-13.496-12.544-13.496-32.816 0-45.304l179.929-195.495zM98.72 474.732h411.824c-0.112-11.649-0.28-23.408-0.504-35.28a5829.023 5829.023 0 0 1-0.503-43.344c-0.056-8.624-0.113-17.135-0.113-25.592v-3.92H98.72c-19.152 0-34.72 15.512-34.72 34.665v38.752c0 19.15 15.512 34.719 34.72 34.719zM98.72 701.812h241.136c-0.056-0.056-0.056-0.056-0.056-0.112h170.744c-0.112-11.649-0.28-23.408-0.504-35.28a2858.722 2858.722 0 0 1-0.503-43.344c-0.056-8.568-0.113-17.135-0.113-25.592v-3.92H98.72c-19.152 0-34.72 15.512-34.72 34.665V667.093c0 19.207 15.512 34.719 34.72 34.719zM922.816 820.643H98.72c-19.152 0-34.72 15.513-34.72 34.665v38.752c0 19.152 15.512 34.664 34.72 34.664h824.152c19.153 0 34.665-15.512 34.665-34.664v-38.752c0-19.152-15.569-34.665-34.721-34.665zM98.72 139.627H510.6l-12.375 16.576a9207.86 9207.86 0 0 0-33.993 46.032l-33.599 45.528H98.72c-19.152 0-34.72-15.512-34.72-34.665v-38.752c0-19.15 15.512-34.719 34.72-34.719z" fill="" p-id="11053"></path></svg>