<?xml version="1.0" standalone="no"?><!DOCTYPE svg PUBLIC "-//W3C//DTD SVG 1.1//EN" "http://www.w3.org/Graphics/SVG/1.1/DTD/svg11.dtd"><svg t="1585970463113" class="icon" viewBox="0 0 1025 1024" version="1.1" xmlns="http://www.w3.org/2000/svg" p-id="32766" xmlns:xlink="http://www.w3.org/1999/xlink" width="64.0625" height="64"><defs><style type="text/css"></style></defs><path d="M1.125275 980.339341c0 23.405714 19.12967 42.535385 42.535384 42.535384h937.803956c23.405714 0 42.535385-19.12967 42.535385-42.535384v-724.676923H1.125275v724.676923z m595.720439-383.493627h256.787693V681.916484H596.845714v-85.07077z m-85.295824 170.366594h342.083517v85.295824h-342.083517v-85.295824z m-21.38022-554.085275H0l102.4-180.043956C118.378901 11.702857 142.684835 0 169.466374 0h320.703296v213.127033z m534.955605 0H534.955604V0h320.703297C882.215385 0 906.746374 12.828132 922.725275 33.083077l102.4 180.043956z m0 0" fill="" p-id="32767"></path></svg>