<?xml version="1.0" standalone="no"?><!DOCTYPE svg PUBLIC "-//W3C//DTD SVG 1.1//EN" "http://www.w3.org/Graphics/SVG/1.1/DTD/svg11.dtd"><svg t="1585738866513" class="icon" viewBox="0 0 1025 1024" version="1.1" xmlns="http://www.w3.org/2000/svg" p-id="3988" xmlns:xlink="http://www.w3.org/1999/xlink" width="128.125" height="128"><defs><style type="text/css"></style></defs><path d="M360.806499 587.464526 73.613373 587.464526c-20.675212 0-37.984693 7.164202-52.216932 21.492605C7.164202 623.237451 0 640.546931 0 661.222144l0 289.020238c0 20.627131 7.164202 38.080856 21.396441 52.313096 14.232239 14.232239 31.541719 21.396441 52.216932 21.396441l287.193126 0c20.627131 0 38.225102-7.068038 52.93816-21.396441 14.520731-14.232239 21.781096-31.637883 21.781096-52.313096l0-289.020238c0-20.675212-7.212283-37.984693-21.781096-52.313096C399.031601 594.724891 381.433629 587.464526 360.806499 587.464526zM360.806499 59.910034 73.613373 59.910034c-20.675212 0-37.984693 7.212283-52.216932 21.444523C7.164202 95.586796 0 113.040522 0 133.715735l0 287.81819c0 20.627131 7.164202 38.41743 21.396441 52.93816 14.232239 14.713058 31.541719 21.973423 52.216932 21.973423l287.193126 0c20.627131 0 38.225102-7.260365 52.93816-21.973423 14.520731-14.616894 21.781096-32.31103 21.781096-52.93816L435.525755 133.715735c0-20.723294-7.212283-38.080856-21.781096-52.40926C399.031601 67.122318 381.433629 59.910034 360.806499 59.910034zM888.312908 587.464526l-287.241208 0c-20.530967 0-38.225102 7.164202-52.841997 21.492605-14.616894 14.328403-22.021505 31.637883-22.021505 52.313096l0 289.020238c0 20.627131 7.404611 38.080856 22.021505 52.313096 14.713058 14.232239 32.214866 21.396441 52.841997 21.396441l287.241208 0c20.530967 0 37.984693-7.068038 52.216932-21.396441 14.136076-14.232239 21.252195-31.637883 21.252195-52.313096l0-289.020238c0-20.675212-7.019956-38.080856-21.252195-52.313096C926.345682 594.724891 908.843875 587.464526 888.312908 587.464526zM1002.026577 224.830915l-203.049819-203.049819C784.359863 7.11612 767.002301 0 746.855989 0c-20.146312 0-37.551956 7.260365-52.16885 21.925342l-203.482556 203.482556c-14.568813 14.568813-22.069587 32.214866-22.309997 52.553505-0.336573 20.434803 6.779546 37.840447 21.396441 52.457341l203.049819 203.049819c14.568813 14.568813 32.166784 21.87726 52.986242 21.87726 20.627131-0.048082 38.225102-7.452693 52.793915-22.021505l203.482556-203.482556c14.664976-14.664976 21.829178-32.07062 21.63685-52.457341C1023.951918 256.949617 1016.595389 239.399728 1002.026577 224.830915z" p-id="3989"></path></svg>