<?xml version="1.0" standalone="no"?><!DOCTYPE svg PUBLIC "-//W3C//DTD SVG 1.1//EN" "http://www.w3.org/Graphics/SVG/1.1/DTD/svg11.dtd"><svg t="1585919708367" class="icon" viewBox="0 0 1024 1024" version="1.1" xmlns="http://www.w3.org/2000/svg" p-id="10664" xmlns:xlink="http://www.w3.org/1999/xlink" width="128" height="128"><defs><style type="text/css"></style></defs><path d="M870.515838 62.986543l0 565.154617c0 111.332644-31.92613 194.434318-95.733365 249.309112-60.59303 51.635007-147.84728 77.449953-261.761726 77.449953-50.895157 0-96.941889-6.460132-138.14736-19.371186-56.559157-17.742083-102.605889-46.37419-138.149407-85.913718-45.249577-50.823526-67.858504-121.005958-67.858504-210.568786L168.865477 62.986543l185.411827 0 0 563.791573c0 57.271378 14.538111 100.631932 43.62252 130.062218 29.084409 29.443589 66.231447 44.155662 111.48921 44.155662 60.59303 0 105.011682-14.112416 133.299959-42.341341 28.27088-28.230971 42.412972-69.37709 42.412972-123.412774L685.101965 62.986543 870.515838 62.986543z" p-id="10665"></path></svg>