<svg t="1591694869313" class="icon" viewBox="0 0 1024 1024" version="1.1" xmlns="http://www.w3.org/2000/svg" p-id="3583" width="128" height="128"><path d="M92.161 959.999h839.68c15.553 0 28.16-12.609 28.16-28.16s-12.608-28.16-28.16-28.16h-811.52V92.159c0-15.553-12.608-28.16-28.16-28.16s-28.16 12.608-28.16 28.16v839.68c0 15.552 12.608 28.16 28.16 28.16z m135.803-219.165c32.945 0 59.647-30.339 59.647-67.757 0-9.026-1.567-17.634-4.387-25.51l117.759-153.753a53.084 53.084 0 0 0 17.855 3.092c17.38 0 33.018-8.449 43.919-21.922l111.182 63.334c0.36 37.068 26.92 67.002 59.63 67.002 32.944 0 59.647-30.34 59.647-67.758 0-1.254-0.035-2.496-0.094-3.732l154.882-151.144c7.387 3.723 15.554 5.807 24.154 5.807 32.946 0 59.648-30.333 59.648-67.758 0-37.419-26.702-67.757-59.648-67.757-32.933 0-59.647 30.338-59.647 67.757 0 7.711 1.15 15.112 3.24 22.017L670.74 484.59c-10.196-9.246-23.11-14.787-37.173-14.787-16.215 0-30.912 7.365-41.665 19.297l-113.574-64.602c-2.106-35.248-27.924-63.108-59.491-63.108-32.935 0-59.648 30.34-59.648 67.758 0 10.268 2.022 19.996 5.621 28.717L248.922 609.631c-6.52-2.78-13.581-4.312-20.958-4.312-32.935 0-59.648 30.338-59.648 67.758 0 37.418 26.713 67.757 59.648 67.757z"  p-id="3584"></path></svg>