<?xml version="1.0" standalone="no"?><!DOCTYPE svg PUBLIC "-//W3C//DTD SVG 1.1//EN" "http://www.w3.org/Graphics/SVG/1.1/DTD/svg11.dtd"><svg t="1585706480890" class="icon" viewBox="0 0 1024 1024" version="1.1" xmlns="http://www.w3.org/2000/svg" p-id="6850" xmlns:xlink="http://www.w3.org/1999/xlink" width="128" height="128"><defs><style type="text/css"></style></defs><path d="M1002.709333 371.841219L851.709562 133.751467c-13.185219-20.7616-40.738133-26.904381-61.561905-13.833753L36.551924 596.655543c-20.766476 13.185219-26.904381 40.738133-13.861791 61.442438L173.689905 896.21821c13.186438 20.709181 40.738133 26.847086 61.505828 13.777676l753.623772-476.704915c20.823771-13.192533 27.079924-40.711314 13.889828-61.449752z m-30.076343 35.861943L219.009219 884.470248c-6.665752 4.199619-15.390476 2.233295-19.590095-4.404419L48.419352 641.946819c-4.200838-6.666971-2.233295-15.362438 4.432458-19.619352l753.653028-476.737829c6.671848-4.171581 15.42339-2.200381 19.562057 4.437333l151.061943 238.115353c4.052114 6.523124 2.056533 15.275886-4.495848 19.560838zM322.985448 256.618057l12.514742 30.014172 16.214553-28.166096 32.394971-2.614857-21.82339-24.143238 7.432533-31.575771-29.609447 13.309562-27.813791-16.833829 3.523048 32.338895-24.671086 21.033448 31.837867 6.637714z m191.885409-89.352533l-15.567238-28.575695-13.185219 29.752076-32.014629 6.109866 24.171277 21.675886-4.171581 32.219429 28.195352-16.301105 29.404648 13.953219-6.785219-31.837867 22.290285-23.61539-32.337676-3.380419z m292.548267 478.676114l-25.762134-19.799771-0.11459 32.457143-26.904381 18.243047 30.985752 10.220495 9.133105 31.161296 19.209753-26.229029 32.514438 0.910629-19.090286-26.372877 11.014095-30.461561-30.985752 9.870628zM702.266514 775.350857l-12.275809-30.104381-16.481524 28.052724-32.366933 2.349105 21.61859 24.260266-7.695848 31.542858 29.781334-13.009677 27.700419 17.209296-3.262172-32.366934 24.671086-21.000533-31.689143-6.932724z m-192.624152 88.00061l15.424609 28.695162 13.452191-29.666743 32.014628-5.723429-24.028647-21.914819 4.409295-32.190171-28.314819 16.009752-29.257143-14.1568 6.519467 31.775695-22.614553 23.530057 32.394972 3.641296zM221.09501 382.417676l25.614628 20.119162 0.380343-32.485181 27.023848-18.152838-30.813867-10.428952-8.900267-31.3088-19.44259 26.052266-32.514438-1.176381 18.82819 26.494781-11.223771 30.548115 31.047924-9.662172zM106.691048 522.665448c-3.4048-137.519543 63.47581-273.481143 188.071009-352.285258 124.623238-78.805333 276.124038-81.038629 399.190553-19.295085l29.724038-18.800153c-36.419048-20.353219-75.600457-35.247543-116.866438-44.500114-55.133867-12.395276-111.290514-13.948343-166.805943-4.814019-57.480533 9.513448-111.818362 30.251886-161.456762 61.70941-49.609143 31.456305-91.671162 71.637333-124.862172 119.514209-32.132876 46.171429-54.718171 97.604267-67.142704 152.646705-9.252571 41.205029-12.542781 82.972038-9.662172 124.596419l29.810591-18.772114z m809.285485-21.028572c3.552305 137.519543-63.328305 273.481143-187.923504 352.257219-124.5952 78.890667-276.122819 81.066667-399.162515 19.324343l-29.781333 18.828191c36.419048 20.294705 75.628495 35.220724 116.900571 44.470857 55.127771 12.395276 111.285638 14.010514 166.799848 4.814019 57.480533-9.514667 111.819581-30.223848 161.428724-61.681372s91.671162-71.638552 124.890209-119.486171c32.014629-46.228724 54.599924-97.628648 66.9952-152.643048 9.28061-41.237943 12.514743-83.03299 9.632915-124.656152l-29.780115 18.772114zM384.637562 312.189562c34.895238-22.02819 73.281829-33.781029 111.819581-36.128914l45.994667-29.080381c-60.771962-7.166781-121.628038 6.523124-174.143391 39.684876-52.371505 33.128838-90.761752 82.328381-110.2336 140.247771l45.966629-29.075504c18.681905-33.95779 45.73501-63.562362 80.596114-85.647848zM638.147048 712.084724c-34.895238 22.090362-73.252571 33.838324-111.790324 36.186209l-45.967848 29.080381c60.743924 7.166781 121.571962-6.552381 174.115353-39.714133 52.371505-33.099581 90.761752-82.328381 110.204342-140.247771l-45.93859 29.137676c-18.679467 33.80541-45.76061 63.529448-80.622933 85.557638z m-338.951315-63.914667" p-id="6851"></path><path d="M139.871086 644.476343l136.065219-87.271619 1.083733-14.716343 23.276495 1.428724-4.670171 11.17379c21.238248 33.11421 35.531581 54.729143 42.878781 64.804572l-10.793448 13.933714-7.965257-12.418438-118.358552 75.912533 46.195809 72.02621c5.039543 9.235505 12.981638 9.982781 23.808 2.255238l111.83421-71.728762c11.540724-6.61699 15.262476-14.464 11.204266-23.544686-4.071619-9.070933-10.747124-21.533257-20.036266-37.393066l4.6592-2.987886c18.054095 28.14781 32.096305 39.788495 42.121752 34.912305 0.78019 13.521676-7.269181 24.907581-24.122514 34.166247L267.512686 788.114286c-12.698819 8.912457-23.330133 6.019657-31.913448-8.74301-36.455619-56.838095-57.840152-89.473219-64.119467-97.918781l26.2144-6.295162-3.738819 10.576457 4.247162 6.624305 118.358553-75.913752-35.575467-55.466667-107.17501 68.740876c-8.081067 5.18339-15.006476 10.794667-20.77379 16.828953l-13.165714-2.071162z" p-id="6852"></path><path d="M254.027581 799.252724c-9.20381 0-17.153219-5.617371-23.6288-16.698514-36.071619-56.238324-57.542705-89.033143-63.811048-97.464077l-5.507657-7.408152 46.099505-11.070171-5.828267 16.483961 106.787353-68.493409-28.993829-45.204724-102.044038 65.449448c-7.632457 4.895695-14.24701 10.247314-19.658362 15.90979l-2.202819 2.305219-32.163352-5.054171 147.004952-94.288457 1.301943-17.683505 37.841676 2.322286-6.742552 16.131657c20.193524 31.44899 33.965105 52.238629 40.94659 61.814247l2.698972 3.701029-18.885486 24.380952-9.335467-14.554209-108.096609 69.332114 43.125028 67.265829c2.3808 4.36419 4.534857 4.36419 5.454019 4.36419 1.665219 0 4.657981-0.720457 9.462248-4.149638l0.251124-0.170667 112.093866-71.886019c12.512305-7.174095 9.918171-12.9792 8.671086-15.770819-3.964343-8.832-10.604495-21.216305-19.730286-36.800609l-2.958628-5.051734 14.717562-9.437866 3.290209 5.130971c19.21219 29.953219 28.980419 33.187352 32.288915 33.187353 0.736305 0 1.383619-0.147505 2.035809-0.465677l8.224914-4.000914 0.526629 9.130667c0.919162 15.947581-8.194438 29.32419-27.088457 39.758019l-129.26781 82.909866c-5.775848 4.03139-11.454171 6.075733-16.878933 6.075734z m-72.412648-113.966324c9.857219 14.457905 29.6704 44.886552 59.114057 90.793448l0.138972 0.226742c4.149638 7.136305 8.577219 10.754438 13.159619 10.754439 2.902552 0 6.262248-1.325105 9.984-3.936305l0.210895-0.14141 3.197562-2.051657c-3.153676 1.375086-6.145219 2.052876-9.030705 2.052876-4.667733 0-11.223771-1.83101-16.046323-10.515504l-55.128991-85.956267 0.992305-2.809905-6.591391 1.583543z m216.271238-15.969524a186.681295 186.681295 0 0 1 2.106515 4.517791c2.641676 5.914819 4.737219 16.392533-6.371962 26.154666l0.49859-0.302323c11.663848-6.408533 18.39421-13.574095 20.384915-21.758781-5.202895-0.570514-10.691048-3.395048-16.618058-8.611353z m-72.903923-51.03299l3.198781 4.987124 2.72579-3.52061c-7.920152-11.246933-21.200457-31.416076-40.411429-61.369295l-1.726171-2.690438 2.596571-6.215924-8.710095-0.533943-0.287695 3.907048 0.457143-0.292572 42.157105 65.72861z" p-id="6853"></path><path d="M450.850133 565.366248c-12.807314 23.804343-18.141867 37.339429-16.018285 40.651581l-23.537372-5.934324c3.727848-2.390552 14.958933-16.989867 33.712762-43.823543l-26.548419-41.392762-13.980038 8.966095c-8.082286 5.18339-15.006476 10.793448-20.773791 16.828953l-13.166933-2.071162 44.734172-28.692724c-11.324952-17.655467-21.908724-33.450667-31.729372-47.418514l29.671619-5.009067-5.603962 11.772343 20.707962 32.286476 13.047467-8.368762 4.009447-14.255543 23.406934 3.682743-37.278476 23.9104 23.364266 36.425143 20.394667-31.774476 4.918857 1.517714-20.536076 37.710019 48.849676 76.162438c5.74659 10.336305 3.337752 21.612495-7.228952 33.848076-3.898514-6.078171-15.8208-6.209829-35.782705-0.419352l-2.655086-4.138667c13.483886-6.312229 22.562133-10.966552 27.221334-13.954438 4.660419-2.987886 4.866438-7.79581 0.619276-14.416457l-39.818972-62.09219z m132.522667-123.555353c18.052876 28.14659 30.571276 46.991848 37.56861 56.523581l-10.793448 13.933714-8.495543-13.246171-68.965181 44.233143 33.451886 52.156952 72.693028-46.624914 5.212648-18.531962 27.796724 4.371505-101.583238 65.154438-4.542172 13.427809-19.018362-2.991542 4.269105-9.749943-79.646476-124.179505c-8.139581-12.689067-15.893943-24.073752-23.235048-34.172343l21.155353-1.882209 64.304762-41.244038 4.810362-17.106896 26.333866 4.142324-94.127543 60.372114 24.955124 38.909562 68.033829-43.635809 3.608381-12.830476 20.482438 3.221942-4.269105 9.748724z m-84.667733 48.4608l30.7968 48.015848 68.965181-44.233143-30.7968-48.017067-68.965181 44.234362z" p-id="6854"></path><path d="M500.547048 670.549333l-4.408077-6.87299c-0.746057-1.162971-3.421867-1.857829-7.15459-1.857829-5.308952 0-12.643962 1.345829-21.79901 4.002134l-4.370285 1.267809-8.87101-13.828876 6.304914-2.951314c13.176686-6.1696 22.097676-10.732495 26.514286-13.565562 0.83261-0.533943 0.843581-0.799695 0.850895-0.976457 0.017067-0.392533-0.082895-1.917562-2.072381-5.0176l-34.171123-53.277258c-9.362286 18.297905-10.730057 24.327314-10.884877 26.075429l7.789715 12.14781-52.122819-13.141334 11.849143-7.599543c1.102019-0.769219 6.521905-5.894095 29.665523-38.842514l-21.051733-32.821638-8.849067 5.675886c-7.637333 4.898133-14.250667 10.249752-19.657142 15.908571l-2.204039 2.306438-32.160914-5.059047 53.0944-34.055315c-9.887695-15.292952-19.387733-29.42659-28.284343-42.079085l-5.560076-7.906743 50.757486-8.568686-9.184305 19.293867 15.589181 24.305371 5.967238-3.827809 4.848152-17.238553 22.652343 3.563276c-7.035124-10.837333-13.910552-20.882286-20.471466-29.908114l-6.324419-8.701562 30.378666-2.703847 61.09501-39.186286 5.650286-20.089905 47.52579 7.476419-102.497524 65.7408 18.373486 28.647619 60.952381-39.093638 4.447086-15.813486 33.635961 5.290667-6.128152 13.998324c17.008152 26.474057 28.977981 44.45501 35.588876 53.461333l2.719696 3.705905-18.896458 24.394362-9.866971-15.384381-58.703238 37.651505 26.871467 41.895009 65.61158-42.082743 6.052572-21.513752 48.991086 7.703162-113.287315 72.661333-5.504 16.26941-31.8976-5.0176 6.129372-13.998324-56.818591-88.586971-20.529981 37.699047 47.099124 73.453714c4.874971 8.76861 7.454476 22.964419-7.943314 40.792991l-5.330895 6.180571z m-11.561448-20.922514c4.490971 0 8.257829 0.721676 11.27619 2.155276 7.441067-10.736152 5.435733-17.662781 2.997639-22.123276l-50.689219-79.028419v-0.001219l-29.486324-45.970286-22.432915-34.975695 2.023619-4.250819-8.634514 1.457981c8.380952 12.14781 17.222705 25.469562 26.361905 39.71779l3.291429 5.130972 72.110323 112.427886c2.844038 4.434895 4.149638 8.400457 3.989943 12.122209-0.132876 3.086629-1.359238 7.452038-6.449981 10.715429a85.255314 85.255314 0 0 1-4.422705 2.622171h0.06461z m66.466133-44.202667l6.137905 0.965486 1.500648-4.44099-69.411353-108.222172h-0.001219l-9.027047-14.073905-2.784305 1.785905 75.99299 118.484114-2.407619 5.501562z m-132.584838-8.708876l6.270781 1.581105c1.277562-4.785981 4.0448-11.691886 9.222095-22.108648-7.031467 9.756038-11.9552 16.210895-15.492876 20.527543z m225.579886-59.598019l-1.809067 6.434133 8.411429-5.395504-6.602362-1.038629z m-208.519314-28.779276l14.944304 23.298438 17.765181-27.678476 11.457829 3.535238-12.490362-19.474286-31.676952 20.319086z m67.198781-16.225524l24.215162 37.755124 58.703238-37.651505-24.215162-37.755124-58.703238 37.651505z m96.366933-1.511619l7.124114 11.109181 2.717257-3.508419c-7.355733-10.382629-18.890362-27.838171-35.092723-53.100495l-1.760305-2.746515 2.408838-5.500342-7.328914-1.153219-0.9984 3.555961 32.930133 51.343848z m-153.714591-4.832305l-0.607085 2.157715 2.820876-1.809067-2.213791-0.348648z m29.973943-7.625143l4.371505 0.687543-20.509257-31.978057-4.386133 0.390095c5.59421 7.992076 11.362743 16.616838 17.222704 25.7536l3.301181 5.146819z m63.006477-89.400076L541.34979 393.752381l6.548724-4.200838-5.139504-0.808229z" p-id="6855"></path><path d="M684.737829 439.889676l59.125028-47.268571 2.123581 3.310933c-15.277105 14.473752-28.14781 27.220114-38.629181 38.213486-10.486248 11.015314-17.895619 20.643352-22.252495 28.878019l-18.878172-8.923429c6.125714-5.480838 10.487467-15.086933 13.076724-28.832914 2.583162-13.725257 4.559238-31.150324 5.922134-52.289829-7.369143 6.295162-15.319771 13.73379-23.842134 22.301258-8.526019 8.590629-13.587505 15.726933-15.191771 21.429638l-19.408457-9.752381c6.829105-4.380038 10.449676-18.569752 10.831238-42.584991 0.390095-24.00061-1.141029-43.467581-4.577524-58.407009l25.541486-1.193448-6.664534 10.116876c-1.811505 29.988571-5.213867 57.495162-10.220495 82.503924l43.140876-31.175924c1.520152-12.657371 1.097143-28.345295-1.26659-47.091809l25.140419 0.231619-8.127391 9.886476c-2.898895 39.252114-8.177371 76.138057-15.842742 110.648076z m7.498361 62.961372c3.991162-3.326781 11.517562-11.075048 22.577981-23.2448 11.054324-12.14781 26.934857-31.479467 47.633067-58.0096l3.987505 2.116266c-34.826971 49.615238-52.660419 78.560305-53.458895 86.865676l-20.739658-7.727542z m44.367239-252.797562l-5.731962 9.520762c0.520533 9.013638 0.64 16.731429 0.368152 23.132647l40.073752-25.7024 4.009448-14.256762 23.938438 4.510477c-5.504 5.101714-9.263543 12.5696-11.268876 22.419504-2.012648 9.871848-3.424305 21.675886-4.238629 35.434057l28.89021-18.529523 3.608381-12.830477 17.555505 2.761143-4.270324 9.748724c16.286476 25.392762 26.681295 40.925867 31.199086 46.590781l-9.330591 14.164114-6.902248-10.761752-71.760457 46.026362 29.203505 45.533867c5.308952 8.277333 12.930438 9.233067 22.876648 2.85379l60.576914-38.853486c4.33981-2.783086 5.319924-6.735238 2.941562-11.818666-2.391771-5.076114-8.228571-15.553829-17.516495-31.413638l4.6592-2.989105c9.821867 13.967848 16.661943 22.229333 20.519009 24.813714 3.849752 2.606324 8.656457 3.593752 14.428648 3.014705 0.521752 9.013638-1.695695 15.491657-6.609676 19.429181-4.938362 3.935086-8.323657 6.507276-10.186362 7.701943l-69.896534 44.830476c-13.047467 8.368762-23.471543 6.473143-31.253943-5.662476l-64.248685-100.171581c-3.476724 12.363581-7.842133 23.341105-13.079162 32.927695l-4.389791-0.6912c6.773029-22.253714 9.525638-44.267276 8.2688-66.062629-1.262933-21.77341-3.911924-39.937219-7.975009-54.475581l25.541486-1.194666z m41.558552 58.642285l-2.730667-47.323428-42.870247 27.496838c-0.019505 10.929981-0.964267 25.156267-2.850134 42.722743l11.173791 1.015466 37.277257-23.911619z m-34.093105 28.875581l25.486629 39.738515 29.824-19.128077-25.487848-39.738514-29.822781 19.128076z m41.006324-26.300952l25.487848 39.738514 30.754133-19.725409-25.486629-39.738515-30.755352 19.72541z" p-id="6856"></path><path d="M718.2848 519.060724l-38.022095-14.166553 8.071314-6.726704c3.757105-3.129295 11.14941-10.754438 21.969676-22.662096 10.94339-12.025905 26.869029-31.42339 47.338057-57.659733l3.146362-4.032609 11.889372 6.312228-42.567924-66.369828c-2.798933 7.823848-6.012343 15.068648-9.603657 21.640533l-2.057753 3.765638-15.552609-2.449067 2.040686-6.704762c4.714057-15.491657 7.431314-31.01501 8.120076-46.344533l-6.540191 7.956724c-2.467352 32.452267-6.613333 63.620876-12.350171 92.925562l51.1744-40.912457 8.501638 13.251047-3.663238 3.46941c-14.977219 14.189714-27.900343 26.972648-38.408533 37.994057-10.030324 10.536229-17.18979 19.797333-21.276039 27.522438l-2.724571 5.150476-32.453486-15.340495 6.847391-6.126933c5.077333-4.542171 8.828343-13.09379 11.150628-25.418362 1.891962-10.051048 3.465752-22.290286 4.69821-36.514134a476.286781 476.286781 0 0 0-12.307505 11.952762c-9.645105 9.718248-12.743924 15.57821-13.6448 18.781867l-2.001676 7.114362-35.568152-17.872457 9.002666-5.774629c1.760305-1.130057 7.544686-7.176533 8.027429-37.550324 0.380343-23.376457-1.108114-42.53379-4.423924-56.942933l-1.637181-7.114362 44.796343-2.091886-12.357486 18.759924c-1.481143 23.676343-3.985067 46.023924-7.46179 66.669715l28.625676-20.688458c1.103238-11.665067 0.585143-26.105905-1.543314-42.979962l-0.872839-6.921752 36.565334 0.337676c-0.036571-2.416152-0.124343-4.82499-0.262095-7.228952-1.236114-21.284571-3.846095-39.18019-7.760458-53.185829l-2.06019-7.371581 44.573257-2.082133-10.643505 17.67741c0.19261 3.659581 0.318171 7.125333 0.376686 10.378971l28.635429-18.366171 4.894476-17.400686 41.307428 7.7824-8.86979 8.221257c-4.528762 4.197181-7.704381 10.645943-9.439086 19.165867-1.333638 6.54019-2.4064 14.070248-3.203657 22.482895l16.642438-10.673981 4.445867-15.813486 30.711466 4.829867-6.13059 13.997105c15.125943 23.534933 24.902705 38.108648 29.071848 43.334704l2.758704 3.458439-16.924038 25.68899-8.673524-13.524114-61.498514 39.444724 25.913295 40.402895c2.39421 3.732724 4.509257 4.21181 6.084267 4.211809 2.21379 0 5.10781-1.105676 8.369981-3.197562l60.576914-38.853485c1.304381-0.837486 2.024838-1.298286 0.710705-4.105753-2.319848-4.926171-8.12861-15.331962-17.2544-30.915047l-2.958628-5.050515 14.503009-9.302552 3.359695 4.778667c12.691505 18.049219 17.462857 22.275657 18.925715 23.255771 2.664838 1.802971 6.07939 2.451505 10.426514 2.012648l6.326857-0.635124 0.366933 6.3488c0.638781 11.048229-2.349105 19.303619-8.8832 24.538209-5.307733 4.230095-8.706438 6.792533-10.705676 8.076191l-69.897752 44.830476c-6.292724 4.037486-12.330667 6.083048-17.944381 6.084267-8.638171 0-15.9488-4.571429-21.730743-13.586286l-12.899962-20.113067-3.030552 4.317867c-46.340876 66.015086-52.067962 80.698514-52.380038 83.947276l-0.757029 7.899429z m-14.762667-18.510019l5.558857 2.071162c1.7152-4.081371 4.694552-9.875505 9.796267-18.424686-6.257371 6.876648-11.349333 12.302629-15.355124 16.353524z m-25.397638-47.569676l4.522667 2.138209c2.734324-4.356876 6.170819-9.025829 10.286324-13.9776l-14.808991 11.839391z m56.460191-114.826972l63.032076 98.274743c5.102933 7.955505 9.873067 7.976229 11.45539 7.976229h0.012191c3.242667 0 7.066819-1.398248 11.363962-4.154515l2.590476-1.661562c-3.445029 1.565257-6.709638 2.333257-9.877943 2.333258-4.583619 0-11.139657-1.704229-16.346209-9.820648l-29.098667-45.371733h-0.001219l-30.351848-47.324648-2.778209-0.251124z m-95.105219 68.359314l3.688838 1.854172c1.581105-2.847695 3.687619-5.873371 6.341485-9.102629l-10.030323 7.248457z m253.585066-30.746819c0.29379 0.591238 0.558324 1.133714 0.791162 1.627429 3.029333 6.478019 2.2272 12.596419-2.049219 17.020343 1.813943-1.304381 4.566552-3.425524 8.216381-6.334172 2.300343-1.841981 3.685181-4.665295 4.182553-8.558933-4.16061-0.413257-7.894552-1.671314-11.140877-3.754667z m-140.574476-36.355657l18.90621 29.476572 19.562057-12.546438-18.90621-29.476572-19.562057 12.546438z m-62.075124-14.128762c1.34461 12.870705 1.720076 24.349257 1.1264 34.283277l0.152381-0.130439a862.650514 862.650514 0 0 0 2.809905-30.640761l0.142629-1.928534 1.259276-1.532343-5.490591-0.0512z m88.712534-9.964495l25.278171 39.410591 0.9216-0.591239-25.276952-39.41059-0.922819 0.591238z m-138.709334-3.59619c1.617676 9.158705 2.652648 19.720533 3.098819 31.586742a708.629943 708.629943 0 0 0 2.313753-28.787809l0.098743-1.624991 0.9728-1.476266-6.484115 0.302324z m153.078248 1.389714l18.906209 29.476571 20.49341-13.143771-18.90621-29.476572-20.493409 13.143772z m52.848152 14.718781l5.130972 8.000609 1.806628-2.744076c-5.449143-7.499581-14.957714-21.838019-28.875581-43.535847l-1.761523-2.746515 2.410057-5.499124-4.400762-0.692419-1.399467 4.981029 27.089676 42.236343z m-109.937371-1.750553l2.946438 0.266972 32.518095-20.856686-1.924876-33.358019-31.322209 20.089905c-0.160914 9.244038-0.904533 20.59459-2.217448 33.857828z m-17.60061-69.09318c3.114667 13.519238 5.23581 29.750857 6.315886 48.381561 0.134095 2.322286 0.224305 4.648229 0.268191 6.980267 0.560762-7.217981 0.903314-13.667962 1.025219-19.307276l-1.763962 1.131276 0.499809-11.727238c0.263314-6.196419 0.14141-13.7728-0.364495-22.521905l-0.108495-1.88099 0.825295-1.37021-6.697448 0.314515z m62.109258-6.373181l1.045942 18.128457 0.057296-0.284038c1.337295-6.560914 3.429181-12.267276 6.252495-17.069105l-8.591848-1.618895-0.561981 1.9968 1.798096-1.153219z" p-id="6857"></path></svg>